<svg xmlns="http://www.w3.org/2000/svg" width="30.635" height="26.806" viewBox="0 0 30.635 26.806">
  <path id="Icon_awesome-camera" data-name="Icon awesome-camera" d="M30.635,8.951V26.184a2.873,2.873,0,0,1-2.872,2.872H2.872A2.873,2.873,0,0,1,0,26.184V8.951A2.873,2.873,0,0,1,2.872,6.079H8.137l.736-1.969A2.868,2.868,0,0,1,11.56,2.25h7.509a2.868,2.868,0,0,1,2.687,1.861L22.5,6.079h5.265A2.873,2.873,0,0,1,30.635,8.951ZM22.5,17.568a7.18,7.18,0,1,0-7.18,7.18A7.186,7.186,0,0,0,22.5,17.568Zm-1.915,0A5.265,5.265,0,1,1,15.318,12.3,5.273,5.273,0,0,1,20.583,17.568Z" transform="translate(0 -2.25)" fill="#2fd3ca"/>
</svg>
