<svg xmlns="http://www.w3.org/2000/svg" width="16.672" height="16.231" viewBox="0 0 16.672 16.231">
  <g id="noun_chat_1079099" opacity="0.72">
    <g id="Group_40" data-name="Group 40">
      <path id="Path_3" data-name="Path 3" d="M16.736,11A8.1,8.1,0,0,0,8.4,18.815a8.1,8.1,0,0,0,8.336,7.815,8.762,8.762,0,0,0,3.968-.942l2.665,1.443a.9.9,0,0,0,.381.1.864.864,0,0,0,.481-.16.815.815,0,0,0,.3-.8l-.721-3.326a7.465,7.465,0,0,0,1.262-4.128A8.1,8.1,0,0,0,16.736,11Zm5.571,11.3a.812.812,0,0,0-.14.641l.421,1.964-1.523-.822a.779.779,0,0,0-.781.02,7.143,7.143,0,0,1-3.547.922A6.5,6.5,0,0,1,10,18.815,6.5,6.5,0,0,1,16.736,12.6a6.5,6.5,0,0,1,6.733,6.212A5.877,5.877,0,0,1,22.306,22.3Z" transform="translate(-8.4 -11)" fill="#181818"/>
    </g>
  </g>
</svg>
