<svg xmlns="http://www.w3.org/2000/svg" width="20.21" height="17.961" viewBox="0 0 20.21 17.961">
  <path id="Icon_awesome-edit" fill="black" data-name="Icon awesome-edit" d="M14.126,2.923l3.165,3.165a.343.343,0,0,1,0,.484L9.628,14.235,6.372,14.6a.682.682,0,0,1-.754-.754l.361-3.256,7.663-7.663A.343.343,0,0,1,14.126,2.923Zm5.684-.8L18.1.407a1.372,1.372,0,0,0-1.937,0L14.919,1.649a.343.343,0,0,0,0,.484L18.084,5.3a.343.343,0,0,0,.484,0L19.81,4.056a1.372,1.372,0,0,0,0-1.937ZM13.473,12.15v3.572H2.246V4.495h8.063a.431.431,0,0,0,.3-.123l1.4-1.4a.421.421,0,0,0-.3-.719H1.684A1.685,1.685,0,0,0,0,3.933v12.35a1.685,1.685,0,0,0,1.684,1.684h12.35a1.685,1.685,0,0,0,1.684-1.684V10.747a.422.422,0,0,0-.719-.3l-1.4,1.4A.431.431,0,0,0,13.473,12.15Z" transform="translate(0 -0.007)"/>
</svg>
